<svg width="24" height="24" viewBox="0 0 24 24" fill="none" xmlns="http://www.w3.org/2000/svg">
<g clip-path="url(#clip0_668_2475)">
<path d="M0.88029 14.0909L4.75029 18.0009C4.84325 18.0946 4.95385 18.169 5.07571 18.2198C5.19757 18.2705 5.32828 18.2967 5.46029 18.2967C5.5923 18.2967 5.72301 18.2705 5.84487 18.2198C5.96673 18.169 6.07733 18.0946 6.17029 18.0009C6.26402 17.9079 6.33841 17.7973 6.38918 17.6755C6.43995 17.5536 6.46609 17.4229 6.46609 17.2909C6.46609 17.1589 6.43995 17.0282 6.38918 16.9063C6.33841 16.7844 6.26402 16.6738 6.17029 16.5809L2.61029 13.0009H23.0003C23.2655 13.0009 23.5199 12.8955 23.7074 12.708C23.8949 12.5204 24.0003 12.2661 24.0003 12.0009C24.0003 11.7357 23.8949 11.4813 23.7074 11.2938C23.5199 11.1062 23.2655 11.0009 23.0003 11.0009H2.55029L6.17029 7.38088C6.34758 7.1949 6.44648 6.94782 6.44648 6.69088C6.44648 6.43394 6.34758 6.18685 6.17029 6.00088C6.07733 5.90715 5.96673 5.83275 5.84487 5.78198C5.72301 5.73122 5.5923 5.70508 5.46029 5.70508C5.32828 5.70508 5.19757 5.73122 5.07571 5.78198C4.95385 5.83275 4.84325 5.90715 4.75029 6.00088L0.88029 9.85088C0.318488 10.4134 0.00292969 11.1759 0.00292969 11.9709C0.00292969 12.7659 0.318488 13.5284 0.88029 14.0909Z" fill="#0D2612"/>
</g>
<defs>
<clipPath id="clip0_668_2475">
<rect width="24" height="24" fill="white"/>
</clipPath>
</defs>
</svg>
